<?xml version="1.0" standalone="no"?>
<!DOCTYPE svg PUBLIC "-//W3C//DTD SVG 20010904//EN"
 "http://www.w3.org/TR/2001/REC-SVG-20010904/DTD/svg10.dtd">
<svg version="1.0" xmlns="http://www.w3.org/2000/svg"
 width="700.000000pt" height="700.000000pt" viewBox="0 0 700.000000 700.000000"
 preserveAspectRatio="xMidYMid meet">
<metadata>
Created by potrace 1.11, written by Peter Selinger 2001-2013
</metadata>
<g transform="translate(0.000000,700.000000) scale(0.100000,-0.100000)"
fill="#000000" stroke="none">
<path d="M662 5480 c-18 -5 -18 -54 -18 -1967 l0 -1963 510 0 511 0 0 1959 c0
1078 -3 1963 -7 1967 -8 8 -966 12 -996 4z"/>
<path d="M2400 5470 c-5 -3 -8 -886 -8 -1963 l0 -1957 444 0 c348 0 444 3 445
13 0 6 2 327 4 712 5 1156 6 1285 10 1285 2 0 49 -84 106 -187 129 -238 150
-276 186 -343 17 -30 55 -100 85 -155 30 -55 72 -131 93 -170 21 -38 78 -144
128 -235 50 -91 103 -187 118 -215 l28 -50 329 -3 329 -3 208 388 c115 213
227 422 249 464 240 444 292 539 296 539 3 0 6 -379 7 -843 1 -463 2 -922 3
-1019 l0 -178 445 0 445 0 -2 1962 -3 1962 -388 1 c-214 0 -393 -3 -399 -6 -5
-3 -19 -26 -32 -50 -25 -48 -115 -219 -181 -344 -23 -44 -66 -125 -95 -180
-29 -55 -69 -131 -90 -170 -21 -38 -68 -128 -105 -200 -37 -71 -82 -157 -100
-190 -18 -33 -58 -109 -90 -170 -32 -60 -77 -146 -100 -190 -23 -44 -71 -134
-106 -200 -34 -66 -91 -174 -126 -240 -35 -66 -82 -157 -105 -202 -23 -45 -45
-80 -50 -77 -4 2 -21 32 -38 65 -16 33 -45 88 -64 122 -18 34 -57 107 -86 162
-29 55 -69 132 -90 170 -21 39 -62 117 -93 175 -124 237 -153 292 -237 450
-48 91 -113 215 -145 275 -32 61 -96 182 -143 270 -46 88 -107 203 -135 255
-115 217 -140 265 -144 270 -6 6 -793 6 -803 0z"/>
</g>
</svg>
